<svg width="24" height="25" viewBox="0 0 24 25" fill="none" xmlns="http://www.w3.org/2000/svg">
<path fill-rule="evenodd" clip-rule="evenodd" d="M3.60961 25C3.13553 25.0002 2.66605 24.9031 2.228 24.7143C1.78996 24.5254 1.39195 24.2484 1.05672 23.8993C0.72149 23.5501 0.455617 23.1355 0.274298 22.6792C0.0929792 22.2229 -0.000229325 21.7338 4.23693e-07 21.24V3.76002C-0.000229325 3.26618 0.0929792 2.77713 0.274298 2.32084C0.455617 1.86454 0.72149 1.44995 1.05672 1.10075C1.39195 0.751552 1.78996 0.474601 2.228 0.285727C2.66605 0.0968536 3.13553 -0.00023888 3.60961 4.41346e-07H20.3904C20.8645 -0.00023888 21.334 0.0968536 21.772 0.285727C22.21 0.474601 22.6081 0.751552 22.9433 1.10075C23.2785 1.44995 23.5444 1.86454 23.7257 2.32084C23.907 2.77713 24.0002 3.26618 24 3.76002V21.24C24.0002 21.7338 23.907 22.2229 23.7257 22.6792C23.5444 23.1355 23.2785 23.5501 22.9433 23.8993C22.6081 24.2484 22.21 24.5254 21.772 24.7143C21.334 24.9031 20.8645 25.0002 20.3904 25H3.60961ZM18.2753 14.4392H15.7407V23.1792H20.4079C20.6526 23.1792 20.8949 23.129 21.1209 23.0314C21.347 22.9339 21.5524 22.7909 21.7255 22.6107C21.8985 22.4304 22.0357 22.2164 22.1294 21.981C22.223 21.7455 22.2712 21.4931 22.2712 21.2382V3.75819C22.2712 3.24341 22.0749 2.74971 21.7255 2.3857C21.376 2.02169 20.9021 1.81719 20.4079 1.81719H3.62709C3.1329 1.81719 2.65895 2.02169 2.3095 2.3857C1.96005 2.74971 1.76373 3.24341 1.76373 3.75819V21.2382C1.76373 21.7529 1.96005 22.2467 2.3095 22.6107C2.65895 22.9747 3.1329 23.1792 3.62709 23.1792H12.9439V14.4392H10.1471V11.5259H12.9439V9.96176C12.9439 6.99381 14.3301 5.70102 16.6846 5.70102C17.7946 5.70102 18.3907 5.78478 18.6773 5.82666H18.6948V8.61253H17.0832C16.2704 8.61253 15.8858 8.97669 15.7704 9.70503C15.7424 9.89601 15.7289 10.089 15.7302 10.2822V11.5259H18.6669L18.2683 14.4392H18.2753Z" fill="#222222"/>
</svg>
