<svg width="25" height="25" viewBox="0 0 25 25" fill="none" xmlns="http://www.w3.org/2000/svg">
<path d="M7.25 0.5H17.75C21.4739 0.5 24.5 3.52614 24.5 7.25V17.75C24.5 19.5402 23.7888 21.2571 22.523 22.523C21.2571 23.7888 19.5402 24.5 17.75 24.5H7.25C3.52614 24.5 0.5 21.4739 0.5 17.75V7.25C0.5 5.45979 1.21116 3.7429 2.47703 2.47703C3.7429 1.21116 5.45979 0.5 7.25 0.5ZM7 2C5.67392 2 4.40215 2.52678 3.46447 3.46447C2.52678 4.40215 2 5.67392 2 7V18C2 20.7636 4.23636 23 7 23H18C19.3261 23 20.5979 22.4732 21.5355 21.5355C22.4732 20.5979 23 19.3261 23 18V7C23 4.23636 20.7636 2 18 2H7ZM19.0625 4.875C19.3443 4.875 19.6145 4.98694 19.8138 5.1862C20.0131 5.38546 20.125 5.65571 20.125 5.9375C20.125 6.21929 20.0131 6.48954 19.8138 6.6888C19.6145 6.88806 19.3443 7 19.0625 7C18.7807 7 18.5105 6.88806 18.3112 6.6888C18.1119 6.48954 18 6.21929 18 5.9375C18 5.65571 18.1119 5.38546 18.3112 5.1862C18.5105 4.98694 18.7807 4.875 19.0625 4.875ZM12.5 6.75C14.025 6.75 15.4875 7.3558 16.5659 8.43414C17.6442 9.51247 18.25 10.975 18.25 12.5C18.25 14.025 17.6442 15.4875 16.5659 16.5659C15.4875 17.6442 14.025 18.25 12.5 18.25C10.975 18.25 9.51247 17.6442 8.43414 16.5659C7.3558 15.4875 6.75 14.025 6.75 12.5C6.75 10.975 7.3558 9.51247 8.43414 8.43414C9.51247 7.3558 10.975 6.75 12.5 6.75ZM12.5 8.25C11.3728 8.25 10.2918 8.69777 9.4948 9.49479C8.69777 10.2918 8.25 11.3728 8.25 12.5C8.25 13.6272 8.69777 14.7082 9.49479 15.5052C10.2918 16.3022 11.3728 16.75 12.5 16.75C13.6272 16.75 14.7082 16.3022 15.5052 15.5052C16.3022 14.7082 16.75 13.6272 16.75 12.5C16.75 11.3728 16.3022 10.2918 15.5052 9.4948C14.7082 8.69777 13.6272 8.25 12.5 8.25Z" fill="#222222" stroke="#222222"/>
</svg>
