<svg width="26" height="26" viewBox="0 0 26 26" fill="none" xmlns="http://www.w3.org/2000/svg">
<path d="M1 12.875C1 7.2775 1 4.4775 2.73875 2.73875C4.4775 1 7.27625 1 12.8763 1C18.4738 1 21.2725 1 23.0112 2.73875C24.75 4.4775 24.75 7.27625 24.75 12.875C24.75 18.4725 24.75 21.2725 23.0112 23.0112C21.2725 24.75 18.4738 24.75 12.875 24.75C7.2775 24.75 4.47875 24.75 2.73875 23.0112C1.00125 21.2712 1 18.4738 1 12.875Z" stroke="#222222" stroke-width="1.5" stroke-linecap="round" stroke-linejoin="round"/>
<path d="M6.625 19.125L11.8675 13.8838M11.8675 13.8838L6.625 6.625H10.0963L13.8838 11.8675L19.125 6.625M11.8675 13.8838L15.6525 19.125H19.125L13.8838 11.8662" stroke="#222222" stroke-width="1.5" stroke-linecap="round" stroke-linejoin="round"/>
</svg>
